<svg width="24" height="24" viewBox="0 0 24 24" fill="none" xmlns="http://www.w3.org/2000/svg">
<path d="M4.67813 2.03437C4.41094 2.12812 4.27969 2.23125 4.13438 2.44687L4.00781 2.64375V12.0047V21.3656L4.14844 21.5719C4.22813 21.6797 4.3875 21.825 4.5 21.8906L4.71094 22.0078H12H19.2891L19.5 21.8906C19.6125 21.825 19.7719 21.6797 19.8516 21.5719L19.9922 21.3656L20.0063 14.5453L20.0156 7.72031L19.9172 7.51406C19.8328 7.34062 19.3313 6.90469 16.7156 4.73906C15.0141 3.32812 13.5422 2.13281 13.4531 2.08125C13.2938 1.99687 13.1203 1.99219 9.07031 1.98281C5.63438 1.97344 4.81875 1.98281 4.67813 2.03437ZM12.0094 6.20625L12.0234 8.38125L12.1641 8.58281C12.2438 8.69062 12.3984 8.83125 12.5109 8.89219L12.7172 9H15.3609H18V14.4844V19.9688H12H6V12V4.03125H9H11.9953L12.0094 6.20625ZM15.1406 6.1125C15.6703 6.54844 16.1203 6.92344 16.1438 6.94219C16.1719 6.96562 15.7125 6.98437 15.1031 6.98437H14.0156V6.08906C14.0156 5.24062 14.0203 5.19375 14.1 5.25469C14.1422 5.29219 14.6109 5.67656 15.1406 6.1125Z" fill="#42526E"/>
<path d="M8.55468 12.0797C7.84686 12.45 7.78124 13.3922 8.42811 13.8516L8.63436 13.9922L9.92343 14.0063L11.2172 14.0203L11.4609 13.8984C11.8219 13.725 11.9719 13.4859 11.9906 13.05C12.0094 12.7406 11.9953 12.6797 11.8828 12.4875C11.8078 12.3609 11.6672 12.2203 11.5406 12.1359L11.325 12H10.0125C8.90624 12.0047 8.67186 12.0141 8.55468 12.0797Z" fill="#42526E"/>
<path d="M8.62503 16.0359C7.96409 16.3031 7.76253 17.2313 8.26409 17.7047C8.59222 18.0188 8.37659 18 12 18C15.1782 18 15.2907 17.9953 15.4641 17.9063C16.1485 17.5594 16.2047 16.5984 15.5719 16.1484L15.3657 16.0078L12.0563 15.9984C9.94222 15.9938 8.70003 16.0078 8.62503 16.0359Z" fill="#42526E"/>
</svg>
