<svg width="24" height="25" viewBox="0 0 24 25" fill="none" xmlns="http://www.w3.org/2000/svg">
<rect width="24" height="24" transform="translate(0 0.103729)" fill="white" fill-opacity="0.01"/>
<path fill-rule="evenodd" clip-rule="evenodd" d="M11.701 16.8037C11.0382 16.8131 10.3802 16.6907 9.76519 16.4435C9.15016 16.1964 8.59039 15.8295 8.1184 15.3641C7.64641 14.8987 7.27162 14.3442 7.01581 13.7327C6.75999 13.1213 6.62826 12.4651 6.62826 11.8022C6.62826 11.1394 6.75999 10.4832 7.01581 9.87173C7.27162 9.26026 7.64641 8.70573 8.1184 8.24037C8.59039 7.77501 9.15016 7.4081 9.76519 7.16095C10.3802 6.91381 11.0382 6.79136 11.701 6.80074C13.0276 6.80074 14.2999 7.32773 15.2379 8.26579C16.176 9.20385 16.703 10.4761 16.703 11.8027C16.703 13.1293 16.176 14.4016 15.2379 15.3397C14.2999 16.2777 13.0276 16.8047 11.701 16.8047V16.8037ZM20.069 13.6877C19.6764 13.5527 19.3357 13.2985 19.0944 12.9606C18.8531 12.6227 18.7233 12.2179 18.723 11.8027C18.723 10.9267 19.286 10.1897 20.068 9.91774C20.1834 9.8797 20.2801 9.79931 20.3385 9.69278C20.397 9.58625 20.4129 9.46152 20.383 9.34374C20.1859 8.64806 19.9052 7.97885 19.547 7.35074C19.4879 7.25123 19.3947 7.17658 19.2847 7.14071C19.1747 7.10483 19.0553 7.11017 18.949 7.15574C18.539 7.32152 18.0863 7.34959 17.659 7.23574C17.3235 7.14608 17.0174 6.97013 16.771 6.72538C16.5247 6.48063 16.3468 6.17563 16.255 5.84074C16.1383 5.41167 16.165 4.95623 16.331 4.54374C16.376 4.43734 16.3809 4.31826 16.3449 4.20851C16.3088 4.09876 16.2343 4.00577 16.135 3.94674C15.5119 3.59364 14.8489 3.31633 14.16 3.12074C14.0423 3.09054 13.9176 3.10617 13.811 3.16447C13.7044 3.22276 13.624 3.31937 13.586 3.43474C13.4509 3.82735 13.1967 4.16803 12.8588 4.40931C12.5209 4.65059 12.1162 4.78043 11.701 4.78074C11.286 4.78044 10.8815 4.6507 10.5438 4.40961C10.2061 4.16852 9.95203 3.82808 9.81698 3.43574C9.77854 3.32039 9.69792 3.22383 9.59129 3.16541C9.48465 3.107 9.35988 3.09104 9.24198 3.12074C8.53398 3.32074 7.86298 3.60574 7.23798 3.96274C7.14059 4.0198 7.06699 4.11001 7.03063 4.21688C6.99428 4.32374 6.99759 4.44012 7.03998 4.54474C7.18925 4.90855 7.22806 5.30826 7.15158 5.694C7.0751 6.07973 6.88672 6.4344 6.60994 6.71374C6.33316 6.99309 5.98024 7.18473 5.59522 7.26475C5.21021 7.34478 4.81015 7.30965 4.44498 7.16374C4.33882 7.11931 4.2202 7.11467 4.1109 7.15068C4.00159 7.18669 3.90895 7.26091 3.84998 7.35974C3.49276 7.9883 3.21305 8.65785 3.01698 9.35374C2.98729 9.47033 3.00247 9.59383 3.05951 9.69976C3.11655 9.80569 3.21129 9.88634 3.32498 9.92574C3.712 10.0642 4.04681 10.3188 4.28363 10.6548C4.52044 10.9908 4.64769 11.3917 4.64798 11.8027C4.64798 12.6697 4.09598 13.4017 3.32398 13.6797C3.21059 13.7189 3.11602 13.7992 3.05899 13.9048C3.00196 14.0103 2.98661 14.1334 3.01598 14.2497C3.19203 14.8706 3.43443 15.4707 3.73898 16.0397C3.79876 16.1454 3.8966 16.2243 4.01254 16.2604C4.12849 16.2964 4.25381 16.2869 4.36298 16.2337C4.95798 15.9607 5.70598 15.9697 6.46698 16.4717C6.58398 16.5487 6.69198 16.6567 6.76898 16.7717C7.29598 17.5717 7.28098 18.3517 6.96698 18.9597C6.90942 19.0661 6.89475 19.1904 6.926 19.3072C6.95724 19.424 7.03202 19.5244 7.13498 19.5877C7.79693 19.976 8.50608 20.2775 9.24498 20.4847C9.36199 20.5151 9.48616 20.4996 9.59212 20.4414C9.69807 20.3832 9.77779 20.2868 9.81498 20.1717C9.94892 19.7777 10.2028 19.4353 10.541 19.1927C10.8792 18.9501 11.2848 18.8193 11.701 18.8187C12.579 18.8187 13.319 19.3857 13.588 20.1717C13.6254 20.2866 13.7051 20.3829 13.811 20.4411C13.9169 20.4992 14.041 20.5148 14.158 20.4847C14.8872 20.2796 15.5874 19.9829 16.242 19.6017C16.3455 19.5382 16.4207 19.4371 16.4518 19.3197C16.4829 19.2022 16.4675 19.0772 16.409 18.9707C16.091 18.3627 16.072 17.5777 16.6 16.7757C16.677 16.6597 16.785 16.5507 16.902 16.4737C17.674 15.9627 18.429 15.9607 19.027 16.2437C19.1361 16.2984 19.262 16.3092 19.3788 16.2739C19.4957 16.2385 19.5945 16.1597 19.655 16.0537C19.9619 15.4842 20.206 14.883 20.383 14.2607C20.4131 14.1432 20.3975 14.0186 20.3392 13.9122C20.2809 13.8058 20.1843 13.7256 20.069 13.6877Z" fill="#344563"/>
</svg>
