<svg width="20" height="21" viewBox="0 0 20 21" fill="none" xmlns="http://www.w3.org/2000/svg">
<path d="M16.675 17.4787L17.375 16.7787L15.5 14.9037V12.1037H14.5V15.3037L16.675 17.4787ZM2 18.1037C1.45 18.1037 0.979167 17.9079 0.5875 17.5162C0.195833 17.1246 0 16.6537 0 16.1037V2.10373C0 1.55373 0.195833 1.0829 0.5875 0.691229C0.979167 0.299563 1.45 0.103729 2 0.103729H16C16.55 0.103729 17.0208 0.299563 17.4125 0.691229C17.8042 1.0829 18 1.55373 18 2.10373V8.80373C17.6833 8.65373 17.3583 8.52456 17.025 8.41623C16.6917 8.3079 16.35 8.22873 16 8.17873V2.10373H2V16.1037H8.05C8.1 16.4704 8.17917 16.8204 8.2875 17.1537C8.39583 17.4871 8.525 17.8037 8.675 18.1037H2ZM2 16.1037V2.10373V8.17873V8.10373V16.1037ZM4 14.1037H8.075C8.125 13.7537 8.20417 13.4121 8.3125 13.0787C8.42083 12.7454 8.54167 12.4204 8.675 12.1037H4V14.1037ZM4 10.1037H10.1C10.6333 9.60373 11.2292 9.18706 11.8875 8.85373C12.5458 8.5204 13.25 8.2954 14 8.17873V8.10373H4V10.1037ZM4 6.10373H14V4.10373H4V6.10373ZM15 20.1037C13.6167 20.1037 12.4375 19.6162 11.4625 18.6412C10.4875 17.6662 10 16.4871 10 15.1037C10 13.7204 10.4875 12.5412 11.4625 11.5662C12.4375 10.5912 13.6167 10.1037 15 10.1037C16.3833 10.1037 17.5625 10.5912 18.5375 11.5662C19.5125 12.5412 20 13.7204 20 15.1037C20 16.4871 19.5125 17.6662 18.5375 18.6412C17.5625 19.6162 16.3833 20.1037 15 20.1037Z" fill="#344563"/>
</svg>
