<svg width="24" height="13" viewBox="0 0 24 13" fill="none" xmlns="http://www.w3.org/2000/svg">
<path d="M0 12.1037V10.5287C0 9.81206 0.366667 9.22873 1.1 8.77873C1.83333 8.32873 2.8 8.10373 4 8.10373C4.21667 8.10373 4.425 8.1079 4.625 8.11623C4.825 8.12456 5.01667 8.1454 5.2 8.17873C4.96667 8.52873 4.79167 8.8954 4.675 9.27873C4.55833 9.66206 4.5 10.0621 4.5 10.4787V12.1037H0ZM6 12.1037V10.4787C6 9.9454 6.14583 9.4579 6.4375 9.01623C6.72917 8.57456 7.14167 8.18706 7.675 7.85373C8.20833 7.5204 8.84583 7.2704 9.5875 7.10373C10.3292 6.93706 11.1333 6.85373 12 6.85373C12.8833 6.85373 13.6958 6.93706 14.4375 7.10373C15.1792 7.2704 15.8167 7.5204 16.35 7.85373C16.8833 8.18706 17.2917 8.57456 17.575 9.01623C17.8583 9.4579 18 9.9454 18 10.4787V12.1037H6ZM19.5 12.1037V10.4787C19.5 10.0454 19.4458 9.63706 19.3375 9.25373C19.2292 8.8704 19.0667 8.51206 18.85 8.17873C19.0333 8.1454 19.2208 8.12456 19.4125 8.11623C19.6042 8.1079 19.8 8.10373 20 8.10373C21.2 8.10373 22.1667 8.32456 22.9 8.76623C23.6333 9.2079 24 9.7954 24 10.5287V12.1037H19.5ZM8.125 10.1037H15.9C15.7333 9.7704 15.2708 9.47873 14.5125 9.22873C13.7542 8.97873 12.9167 8.85373 12 8.85373C11.0833 8.85373 10.2458 8.97873 9.4875 9.22873C8.72917 9.47873 8.275 9.7704 8.125 10.1037ZM4 7.10373C3.45 7.10373 2.97917 6.9079 2.5875 6.51623C2.19583 6.12456 2 5.65373 2 5.10373C2 4.53706 2.19583 4.06206 2.5875 3.67873C2.97917 3.2954 3.45 3.10373 4 3.10373C4.56667 3.10373 5.04167 3.2954 5.425 3.67873C5.80833 4.06206 6 4.53706 6 5.10373C6 5.65373 5.80833 6.12456 5.425 6.51623C5.04167 6.9079 4.56667 7.10373 4 7.10373ZM20 7.10373C19.45 7.10373 18.9792 6.9079 18.5875 6.51623C18.1958 6.12456 18 5.65373 18 5.10373C18 4.53706 18.1958 4.06206 18.5875 3.67873C18.9792 3.2954 19.45 3.10373 20 3.10373C20.5667 3.10373 21.0417 3.2954 21.425 3.67873C21.8083 4.06206 22 4.53706 22 5.10373C22 5.65373 21.8083 6.12456 21.425 6.51623C21.0417 6.9079 20.5667 7.10373 20 7.10373ZM12 6.10373C11.1667 6.10373 10.4583 5.81206 9.875 5.22873C9.29167 4.6454 9 3.93706 9 3.10373C9 2.25373 9.29167 1.54123 9.875 0.966229C10.4583 0.391229 11.1667 0.103729 12 0.103729C12.85 0.103729 13.5625 0.391229 14.1375 0.966229C14.7125 1.54123 15 2.25373 15 3.10373C15 3.93706 14.7125 4.6454 14.1375 5.22873C13.5625 5.81206 12.85 6.10373 12 6.10373ZM12 4.10373C12.2833 4.10373 12.5208 4.0079 12.7125 3.81623C12.9042 3.62456 13 3.38706 13 3.10373C13 2.8204 12.9042 2.5829 12.7125 2.39123C12.5208 2.19956 12.2833 2.10373 12 2.10373C11.7167 2.10373 11.4792 2.19956 11.2875 2.39123C11.0958 2.5829 11 2.8204 11 3.10373C11 3.38706 11.0958 3.62456 11.2875 3.81623C11.4792 4.0079 11.7167 4.10373 12 4.10373Z" fill="#344563"/>
</svg>
