<svg width="57" height="24" viewBox="0 0 57 24" fill="none" xmlns="http://www.w3.org/2000/svg">
<g clip-path="url(#clip0_129_810)">
<rect width="57" height="24" fill="white" fill-opacity="0.01"/>
<path d="M29.1722 4.60028H31.2962V15.0982C31.2962 17.8663 30.0326 19.7987 27.1019 19.7987C25.9996 19.7987 25.1392 19.6159 24.5477 19.407V17.3962C25.193 17.6574 25.9727 17.788 26.7524 17.788C28.5538 17.788 29.1722 16.7434 29.1722 15.2288V4.60028Z" fill="#253858"/>
<path d="M35.1949 3.79074C36.0284 3.79074 36.6199 4.28691 36.6199 5.17479C36.6199 6.03656 36.0284 6.55885 35.1949 6.55885C34.3614 6.55885 33.7699 6.06268 33.7699 5.17479C33.7699 4.31302 34.3614 3.79074 35.1949 3.79074ZM34.1463 8.20404H36.1897V19.6943H34.1463V8.20404Z" fill="#253858"/>
<path d="M41.2443 19.6943H39.2547V8.20404H41.2443V10.2148C41.9433 8.85689 43.1264 7.89067 45.4386 8.02124V9.95369C42.8306 9.69255 41.2443 10.4499 41.2443 12.9046V19.6943Z" fill="#253858"/>
<path d="M54.9834 17.6313C54.2306 19.1459 52.8056 19.9293 50.9773 19.9293C47.8316 19.9293 46.2452 17.344 46.2452 13.9492C46.2452 10.711 47.9122 7.96901 51.2193 7.96901C52.94 7.96901 54.2844 8.72633 54.9834 10.2148V8.20404H57.0268V19.6943H54.9834V17.6313ZM51.515 18.1013C53.3433 18.1013 54.9565 16.9784 54.9565 14.4192V13.5052C54.9565 10.946 53.4778 9.82312 51.7301 9.82312C49.4448 9.82312 48.2617 11.2855 48.2617 13.9492C48.2886 16.7173 49.4179 18.1013 51.515 18.1013Z" fill="#253858"/>
<path d="M18.498 2.25H9.19519C9.19519 4.49582 11.0773 6.32382 13.3895 6.32382H15.1103V7.91678C15.1103 10.1626 16.9924 11.9906 19.3046 11.9906V3.03343C19.3046 2.58948 18.9551 2.25 18.498 2.25Z" fill="#2684FF"/>
<path d="M13.9004 6.74164H4.5976C4.5976 8.98746 6.47967 10.8155 8.79194 10.8155H10.5127V12.4345C10.5127 14.6804 12.3948 16.5084 14.707 16.5084V7.52506C14.707 7.10724 14.3575 6.74164 13.9004 6.74164Z" fill="url(#paint0_linear_129_810)"/>
<path d="M9.30283 11.2594H0C0 13.5052 1.88208 15.3332 4.19434 15.3332H5.91509V16.9262C5.91509 19.172 7.79717 21 10.1094 21V12.0428C10.1094 11.5989 9.73302 11.2594 9.30283 11.2594Z" fill="url(#paint1_linear_129_810)"/>
</g>
<defs>
<linearGradient id="paint0_linear_129_810" x1="14.5091" y1="6.76417" x2="10.6726" y2="10.8376" gradientUnits="userSpaceOnUse">
<stop offset="0.176" stop-color="#0052CC"/>
<stop offset="1" stop-color="#2684FF"/>
</linearGradient>
<linearGradient id="paint1_linear_129_810" x1="10.1701" y1="11.2894" x2="5.72672" y2="15.7406" gradientUnits="userSpaceOnUse">
<stop offset="0.176" stop-color="#0052CC"/>
<stop offset="1" stop-color="#2684FF"/>
</linearGradient>
<clipPath id="clip0_129_810">
<rect width="57" height="24" fill="white"/>
</clipPath>
</defs>
</svg>
